<svg width="6" height="9" viewBox="0 0 6 9" fill="none" xmlns="http://www.w3.org/2000/svg">
<path d="M5.79167 0.604924C5.79167 0.544145 5.76752 0.485855 5.72454 0.442878C5.68157 0.399901 5.62328 0.375757 5.5625 0.375757H4.41667C3.83968 0.347015 3.27477 0.547811 2.84537 0.934273C2.41597 1.32073 2.15698 1.86144 2.125 2.43826V3.67576H0.979167C0.918388 3.67576 0.860098 3.6999 0.817121 3.74288C0.774144 3.78586 0.75 3.84415 0.75 3.90492V5.09659C0.75 5.15737 0.774144 5.21566 0.817121 5.25864C0.860098 5.30161 0.918388 5.32576 0.979167 5.32576H2.125V8.39659C2.125 8.45737 2.14914 8.51566 2.19212 8.55864C2.2351 8.60161 2.29339 8.62576 2.35417 8.62576H3.72917C3.78994 8.62576 3.84823 8.60161 3.89121 8.55864C3.93419 8.51566 3.95833 8.45737 3.95833 8.39659V5.32576H5.15917C5.21013 5.32649 5.25988 5.31021 5.30055 5.2795C5.34123 5.24879 5.3705 5.20539 5.38375 5.15617L5.71375 3.96451C5.72287 3.93065 5.72409 3.89515 5.71733 3.86074C5.71057 3.82633 5.696 3.79393 5.67475 3.76604C5.6535 3.73814 5.62613 3.7155 5.59475 3.69985C5.56337 3.6842 5.52882 3.67595 5.49375 3.67576H3.95833V2.43826C3.96973 2.32481 4.02301 2.21968 4.10776 2.14341C4.19251 2.06713 4.30265 2.02519 4.41667 2.02576H5.5625C5.62328 2.02576 5.68157 2.00161 5.72454 1.95864C5.76752 1.91566 5.79167 1.85737 5.79167 1.79659V0.604924Z" fill="white"/>
</svg>
