<svg width="9" height="9" viewBox="0 0 9 9" fill="none" xmlns="http://www.w3.org/2000/svg">
<path d="M5.9437 2.85011C5.59241 2.84891 5.24433 2.91698 4.91938 3.05044C4.59443 3.1839 4.29898 3.38012 4.04995 3.62788C3.80091 3.87564 3.60317 4.17008 3.46804 4.49434C3.33291 4.8186 3.26305 5.16632 3.26245 5.51761V8.21261C3.26245 8.32202 3.30591 8.42694 3.38327 8.5043C3.46063 8.58165 3.56555 8.62511 3.67495 8.62511H4.63745C4.74685 8.62511 4.85177 8.58165 4.92913 8.5043C5.00649 8.42694 5.04995 8.32202 5.04995 8.21261V5.51761C5.04986 5.39267 5.0761 5.26911 5.12697 5.155C5.17783 5.04088 5.25217 4.93876 5.34515 4.8553C5.43812 4.77183 5.54764 4.7089 5.66657 4.67061C5.7855 4.63231 5.91116 4.61951 6.03537 4.63303C6.25812 4.66109 6.46283 4.76992 6.61067 4.93888C6.75852 5.10785 6.83921 5.32519 6.83745 5.5497V8.21261C6.83745 8.32202 6.88091 8.42694 6.95827 8.5043C7.03563 8.58165 7.14055 8.62511 7.24995 8.62511H8.21245C8.32185 8.62511 8.42677 8.58165 8.50413 8.5043C8.58149 8.42694 8.62495 8.32202 8.62495 8.21261V5.51761C8.62435 5.16632 8.55449 4.8186 8.41936 4.49434C8.28423 4.17008 8.08649 3.87564 7.83746 3.62788C7.58842 3.38012 7.29297 3.1839 6.96802 3.05044C6.64307 2.91698 6.29499 2.84891 5.9437 2.85011Z" fill="#AAAAAA"/>
<path d="M2.025 3.2627H0.7875C0.559683 3.2627 0.375 3.44738 0.375 3.6752V8.2127C0.375 8.44051 0.559683 8.6252 0.7875 8.6252H2.025C2.25282 8.6252 2.4375 8.44051 2.4375 8.2127V3.6752C2.4375 3.44738 2.25282 3.2627 2.025 3.2627Z" fill="#AAAAAA"/>
<path d="M1.40625 2.4375C1.97579 2.4375 2.4375 1.97579 2.4375 1.40625C2.4375 0.836706 1.97579 0.375 1.40625 0.375C0.836706 0.375 0.375 0.836706 0.375 1.40625C0.375 1.97579 0.836706 2.4375 1.40625 2.4375Z" fill="#AAAAAA"/>
</svg>
