<svg width="9" height="9" viewBox="0 0 9 9" fill="none" xmlns="http://www.w3.org/2000/svg">
<path d="M2.70338 8.16686C3.38112 8.18954 4.05652 8.07613 4.68968 7.83333C5.32284 7.59053 5.9009 7.22328 6.38971 6.75327C6.87852 6.28327 7.26815 5.72004 7.53558 5.09689C7.80301 4.47374 7.94281 3.8033 7.94672 3.12519C8.25731 2.74084 8.48794 2.29828 8.62505 1.82353C8.63529 1.78602 8.63446 1.74635 8.62267 1.7093C8.61088 1.67225 8.58864 1.63939 8.55861 1.61469C8.52858 1.58999 8.49205 1.5745 8.45343 1.57008C8.4148 1.56566 8.37571 1.5725 8.34088 1.58978C8.17839 1.66799 7.99546 1.69326 7.81786 1.66201C7.64025 1.63077 7.47692 1.54459 7.35088 1.41561C7.18999 1.23942 6.99536 1.09731 6.77854 0.997714C6.56171 0.898117 6.3271 0.843054 6.08861 0.835788C5.85012 0.828522 5.61259 0.869201 5.39011 0.955414C5.16762 1.04163 4.96471 1.17162 4.79338 1.33769C4.55881 1.56487 4.38699 1.84887 4.29463 2.16209C4.20227 2.4753 4.19251 2.80709 4.2663 3.12519C2.73088 3.21686 1.67672 2.48811 0.833383 1.48894C0.808048 1.46025 0.774906 1.43956 0.738005 1.42939C0.701104 1.41922 0.662041 1.42002 0.625586 1.43169C0.589131 1.44335 0.556862 1.46538 0.532719 1.49508C0.508576 1.52478 0.493605 1.56087 0.489633 1.59894C0.328973 2.49014 0.444867 3.40915 0.82175 4.23256C1.19863 5.05596 1.81845 5.74433 2.59797 6.20519C2.0753 6.80461 1.34131 7.179 0.549216 7.25019C0.50678 7.25723 0.467606 7.27736 0.437177 7.30776C0.406748 7.33817 0.386587 7.37733 0.379515 7.41976C0.372444 7.46219 0.378815 7.50577 0.397739 7.5444C0.416662 7.58303 0.44719 7.61477 0.485049 7.63519C1.17416 7.97957 1.93303 8.16145 2.70338 8.16686Z" fill="#AAAAAA"/>
</svg>
